<svg viewBox="0 0 24 24" xmlns="http://www.w3.org/2000/svg"><path d="m0 0h24v24h-24z" fill="#fff" opacity="0"/><g fill="#231f20"><path d="m17.91 5h-12l1.3-1.29a1 1 0 0 0 -1.42-1.42l-3 3a1 1 0 0 0 0 1.42l3 3a1 1 0 0 0 1.42 0 1 1 0 0 0 0-1.42l-1.3-1.29h12a1.56 1.56 0 0 1 1.59 1.53v2.47a1 1 0 0 0 2 0v-2.47a3.56 3.56 0 0 0 -3.59-3.53z"/><path d="m18.21 14.29a1 1 0 0 0 -1.42 1.42l1.3 1.29h-12a1.56 1.56 0 0 1 -1.59-1.53v-2.47a1 1 0 0 0 -2 0v2.47a3.56 3.56 0 0 0 3.59 3.53h12l-1.3 1.29a1 1 0 0 0 0 1.42 1 1 0 0 0 1.42 0l3-3a1 1 0 0 0 0-1.42z"/></g></svg>